<?xml version="1.0" encoding="utf-8"?>
<!-- Generator: Adobe Illustrator 17.1.0, SVG Export Plug-In . SVG Version: 6.00 Build 0)  -->
<!DOCTYPE svg PUBLIC "-//W3C//DTD SVG 1.1 Tiny//EN" "http://www.w3.org/Graphics/SVG/1.1/DTD/svg11-tiny.dtd">
<svg version="1.1" baseProfile="tiny" id="Layer_1" xmlns="http://www.w3.org/2000/svg" xmlns:xlink="http://www.w3.org/1999/xlink"
	 x="0px" y="0px" viewBox="0 0 384 384.1" xml:space="preserve">
<path fill="#ffffff" d="M381,322.7l-84.8-85.9c13.8-24.1,21-50.9,21-77.9C317.2,71.3,246,0,158.6,0C71.2,0,0,71.3,0,158.9
	s71.2,158.9,158.6,158.9c27.9,0,55.5-7.7,80.1-22.4l84.4,85.6c1.9,1.9,4.6,3.1,7.3,3.1c2.7,0,5.4-1.1,7.3-3.1l43.3-43.8
	C385,333.1,385,326.7,381,322.7z M158.6,61.9c53.4,0,96.8,43.5,96.8,97s-43.4,97-96.8,97s-96.8-43.5-96.8-97
	C61.8,105.4,105.2,61.9,158.6,61.9z"/>
</svg>
